<svg xmlns="http://www.w3.org/2000/svg" viewBox="0 0 21.68 21.68"><defs><style>.cls-1{fill:#fbb000;}</style></defs><g id="Layer_2" data-name="Layer 2"><g id="Layer_1-2" data-name="Layer 1"><path class="cls-1" d="M10.84,21.68a4.31,4.31,0,0,1-3.07-1.27l-6.5-6.5a4.35,4.35,0,0,1,0-6.14l6.5-6.5a4.35,4.35,0,0,1,6.14,0l6.5,6.5a4.35,4.35,0,0,1,0,6.14l-6.5,6.5A4.31,4.31,0,0,1,10.84,21.68Zm0-19.24A1.9,1.9,0,0,0,9.49,3L3,9.49a1.93,1.93,0,0,0,0,2.7l6.5,6.5a2,2,0,0,0,2.7,0l6.5-6.5a1.93,1.93,0,0,0,0-2.7L12.19,3A1.9,1.9,0,0,0,10.84,2.44Z"/><path class="cls-1" d="M13.88,14l-2.32-2.32a1,1,0,0,0-.33-.22,1.05,1.05,0,0,0-.78,0,.87.87,0,0,0-.32.22L7.81,14,6.08,12.25,8.4,9.93a3.37,3.37,0,0,1,1.12-.74,3.45,3.45,0,0,1,2.64,0,3.37,3.37,0,0,1,1.12.74l2.32,2.32Z"/></g></g></svg>