<svg xmlns="http://www.w3.org/2000/svg" xmlns:xlink="http://www.w3.org/1999/xlink" viewBox="0 0 6.93 5.72"><defs><style>.cls-1{fill:url(#linear-gradient);}.cls-2{fill:url(#linear-gradient-2);}</style><linearGradient id="linear-gradient" x1="55.61" y1="28.67" x2="-21.39" y2="-10.33" gradientUnits="userSpaceOnUse"><stop offset="0" stop-color="#eebe47"/><stop offset="0.16" stop-color="#ffee96"/><stop offset="0.24" stop-color="#f8cf77"/><stop offset="0.33" stop-color="#eea54c"/><stop offset="0.55" stop-color="#a2621e"/><stop offset="0.79" stop-color="#ffee96"/><stop offset="0.88" stop-color="#f8db77"/><stop offset="1" stop-color="#eebe47"/></linearGradient><linearGradient id="linear-gradient-2" x1="54.87" y1="30.14" x2="-22.13" y2="-8.86" xlink:href="#linear-gradient"/></defs><g id="Layer_2" data-name="Layer 2"><g id="Layer_1-2" data-name="Layer 1"><path class="cls-1" d="M6.73,2.09,3.8.08a.44.44,0,0,0-.51,0L.19,2.21a.45.45,0,0,0-.11.62A.44.44,0,0,0,.45,3,.49.49,0,0,0,.7,3L3.55,1,6.23,2.82a.45.45,0,0,0,.62-.11A.44.44,0,0,0,6.73,2.09Z"/><polygon class="cls-2" points="1.15 2.98 1.15 5.72 2.92 5.72 2.92 3.81 4.24 3.81 4.24 5.72 5.95 5.72 5.95 2.98 3.54 1.35 1.15 2.98"/></g></g></svg>