<svg xmlns="http://www.w3.org/2000/svg" xmlns:xlink="http://www.w3.org/1999/xlink" viewBox="0 0 6.07 6.07"><defs><style>.cls-1{fill:url(#linear-gradient);}</style><linearGradient id="linear-gradient" x1="50.59" y1="27.12" x2="-26.41" y2="-11.88" gradientUnits="userSpaceOnUse"><stop offset="0" stop-color="#eebe47"/><stop offset="0.16" stop-color="#ffee96"/><stop offset="0.24" stop-color="#f8cf77"/><stop offset="0.33" stop-color="#eea54c"/><stop offset="0.55" stop-color="#a2621e"/><stop offset="0.79" stop-color="#ffee96"/><stop offset="0.88" stop-color="#f8db77"/><stop offset="1" stop-color="#eebe47"/></linearGradient></defs><g id="Layer_2" data-name="Layer 2"><g id="Layer_1-2" data-name="Layer 1"><path class="cls-1" d="M3,0a3,3,0,1,0,3,3A3,3,0,0,0,3,0ZM3,5.62a2.59,2.59,0,0,1-.88-.16.07.07,0,0,0,.07,0c-.12,0-.23-.15-.13-.26C2,5.13,2,5,2.09,5A.05.05,0,0,1,2,4.89s.05,0,.08,0,0,0,.06-.06.07-.14,0-.17.09,0,.13,0,0-.11.08-.17.08-.06.07-.13,0-.11.11-.15.18-.17.18-.35.19-.23.11-.37-.26-.21-.33-.11c0-.06-.1-.1-.14-.06s-.05-.09-.07-.13S2.27,3,2.14,3,2,2.87,1.9,2.82h0c-.08,0-.25,0-.3-.06s-.07.07,0,.12a.07.07,0,0,1,0-.1s0,0,0,0-.15,0-.15.1-.12,0-.19,0-.08-.14-.07-.18S1,2.58,1,2.61s.06-.16.09-.22c-.12,0-.08,0-.14.09s-.17,0-.16,0S.73,2.4.73,2.36s0-.11.05-.17S1,2,1,2.06s.07,0,.11,0h.14c.07.06,0,.15.09.19s0-.19.07-.29.1-.06.14-.1.07-.12.07-.11l.09-.1s.12,0,.15-.06,0-.06,0-.08l.18-.07c-.07,0-.06.09,0,.05l.16-.07v0s-.09.07-.12,0,0-.09,0-.13L2,1.33a.33.33,0,0,1,.21-.09,1.58,1.58,0,0,0,.25-.05l-.13.14c.05,0,.09,0,.12,0h0s0,0,0,0,0-.06,0-.11-.09,0-.08,0,.09-.13,0-.17A.21.21,0,0,1,2.37.84c-.05.1-.24.07-.13,0-.08,0-.08,0-.16-.06S2,.87,1.93.92c.09,0-.09.14-.08.13s-.05,0-.07.09,0,0-.06.06,0-.05,0-.07h0v0h0s0-.05,0-.08S1.6,1,1.5,1V1L1.84.74h0A.26.26,0,0,1,2,.73s0,0,0,0L2.2.59l.06,0h0c.06,0,0,.06,0,.06s0,0,0,0-.05,0-.1,0,.09,0,.13,0,.15.11.15.08,0-.06,0-.07.07,0,.08,0,0-.11,0-.13.06.08.09,0,.06,0,.08,0-.09,0-.11-.08,0,0,0-.05l.4,0h0s-.07,0-.07,0h.06A.21.21,0,0,0,2.8.76c0,.05.05.1.11.1S3,.82,3,.77A.66.66,0,0,1,3.3.63,1,1,0,0,1,3.59.51a2.46,2.46,0,0,1,.75.3s0,.1,0,.11.12,0,.13,0h0s0,.16,0,.11,0-.07,0-.07c-.14,0,0,.14-.11.15s-.07.09-.15.11-.1.07-.13.05a.1.1,0,0,1,0,0s-.15,0,0,.05,0,.17-.07.15-.12,0-.15,0,0,.22,0,.23.12,0,.09.07-.09.12-.13.18,0,.07-.08.11-.07,0-.09.08-.1.13-.1.21,0,.08,0,.13,0,.1,0,.11,0,0,0,.07.11.08.11.15.13.16.2.21a1.38,1.38,0,0,1,.22,0c.11,0,.19-.1.26,0s.09,0,.13,0,0,.07,0,.12,0,0,0,.07.08.1.1.15a.8.8,0,0,1,.07.24c0,.11-.09.19-.06.31s.09.17.1.29.08.17.11.26a.25.25,0,0,1,0,.09s.07,0,.1,0,.23-.06.29-.14l.06-.06A2.57,2.57,0,0,1,3,5.62Z"/></g></g></svg>