<svg xmlns="http://www.w3.org/2000/svg" xmlns:xlink="http://www.w3.org/1999/xlink" viewBox="0 0 5.1 5.46"><defs><style>.cls-1{fill-rule:evenodd;fill:url(#linear-gradient);}</style><linearGradient id="linear-gradient" x1="59.42" y1="31.74" x2="-17.58" y2="-7.26" gradientUnits="userSpaceOnUse"><stop offset="0" stop-color="#eebe47"/><stop offset="0.16" stop-color="#ffee96"/><stop offset="0.24" stop-color="#f8cf77"/><stop offset="0.33" stop-color="#eea54c"/><stop offset="0.55" stop-color="#a2621e"/><stop offset="0.79" stop-color="#ffee96"/><stop offset="0.88" stop-color="#f8db77"/><stop offset="1" stop-color="#eebe47"/></linearGradient></defs><g id="Layer_2" data-name="Layer 2"><g id="Layer_1-2" data-name="Layer 1"><path class="cls-1" d="M0,1.66A1.76,1.76,0,0,1,.59.36C.74.22.94,0,1.16,0s.41.29.53.47.53.78.23,1.14c-.15.17-.37.26-.51.44a.61.61,0,0,0,0,.61,3.49,3.49,0,0,0,.93,1.12A.8.8,0,0,0,3,4c.23,0,.4-.29.57-.43.44-.35.91.13,1.23.41a.72.72,0,0,1,.31.53c0,.21-.29.4-.45.52a1.72,1.72,0,0,1-1.48.35,3.31,3.31,0,0,1-1.49-.84A6.64,6.64,0,0,1,.55,3.23a4.14,4.14,0,0,1-.38-.72A4.13,4.13,0,0,1,0,1.66C0,1.38,0,1.81,0,1.66Z"/></g></g></svg>