<svg xmlns="http://www.w3.org/2000/svg" viewBox="0 0 43.69 43.69"><defs><style>.cls-1{fill:#fff;}</style></defs><g id="Layer_2" data-name="Layer 2"><g id="OBJECTS"><path class="cls-1" d="M20.26,21.18c-4.86.29-8.86-5.71-7.71-10.42-.41-.5-.68-.78-.68-.78l10-10,10,10s-.29.26-.81.68C26.4,11.47,19.4,13.47,20,20A6.7,6.7,0,0,0,20.26,21.18Z"/><path class="cls-1" d="M21.84,43.69l-10-10,.74-.74c.56-.39,2-.44,3.72-.7,4.07-.8,9.07-4.8,7.07-9.8,6-2,7,6,7.73,10.46a9.14,9.14,0,0,0,.69.78Z"/><path class="cls-1" d="M33.71,31.82s-.27-.28-.7-.79C32.4,26.47,29.4,18.47,22.4,20.47c0-5,6-9,10.52-7.93.51-.4.79-.67.79-.67l10,10Z"/><path class="cls-1" d="M10,31.82l-10-10,10-10s.27.28.7.8c.72,5.8,3.72,12.8,10.72,10.8-1,3-3,8-7.29,7.31-1.53,0-2.85-.07-3.4.3Z"/></g></g></svg>