<svg xmlns="http://www.w3.org/2000/svg" viewBox="0 0 24.3 24.3"><defs><style>.cls-1{fill:#dcaf54;}</style></defs><g id="Layer_2" data-name="Layer 2"><g id="Layer_1-2" data-name="Layer 1"><path class="cls-1" d="M12.15,24.3a4.82,4.82,0,0,1-3.44-1.42L1.43,15.59a4.85,4.85,0,0,1,0-6.88L8.71,1.43a4.85,4.85,0,0,1,6.88,0l7.29,7.28a4.88,4.88,0,0,1,0,6.88l-7.29,7.29A4.82,4.82,0,0,1,12.15,24.3Zm0-21.57a2.11,2.11,0,0,0-1.51.63L3.36,10.64a2.12,2.12,0,0,0,0,3L10.64,21a2.2,2.2,0,0,0,3,0l7.28-7.29a2.12,2.12,0,0,0,0-3L13.66,3.36A2.09,2.09,0,0,0,12.15,2.73Z"/><path class="cls-1" d="M15.55,15.67,13,13.07a1.05,1.05,0,0,0-.37-.25,1.12,1.12,0,0,0-.86,0,1.18,1.18,0,0,0-.37.24l-2.6,2.61L6.82,13.73l2.6-2.6a3.74,3.74,0,0,1,1.25-.83,3.85,3.85,0,0,1,3,0,4,4,0,0,1,1.26.84l2.59,2.6Z"/></g></g></svg>