<svg xmlns="http://www.w3.org/2000/svg" viewBox="0 0 13.05 13.06"><defs><style>.cls-1{fill:#008bff;}</style></defs><g id="Layer_2" data-name="Layer 2"><g id="Layer_1-2" data-name="Layer 1"><path class="cls-1" d="M6.53,13.06a2.61,2.61,0,0,1-1.85-.77L.77,8.38a2.61,2.61,0,0,1,0-3.7L4.68.77a2.61,2.61,0,0,1,3.7,0l3.91,3.91a2.63,2.63,0,0,1,0,3.7L8.38,12.29A2.63,2.63,0,0,1,6.53,13.06Zm0-11.59a1.14,1.14,0,0,0-.81.33L1.8,5.72a1.14,1.14,0,0,0-.33.81,1.18,1.18,0,0,0,.33.81l3.92,3.91a1.16,1.16,0,0,0,1.62,0l3.91-3.91a1.14,1.14,0,0,0,.34-.81,1.11,1.11,0,0,0-.34-.81L7.34,1.8A1.18,1.18,0,0,0,6.53,1.47Z"/><path class="cls-1" d="M8.36,8.42,7,7a.63.63,0,0,0-.2-.13.61.61,0,0,0-.46,0A.46.46,0,0,0,6.1,7L4.7,8.42l-1-1L5.06,6a2.19,2.19,0,0,1,.67-.45,2.09,2.09,0,0,1,1.59,0A2.24,2.24,0,0,1,8,6l1.39,1.4Z"/></g></g></svg>