<svg xmlns="http://www.w3.org/2000/svg" viewBox="0 0 29.11 21.83"><defs><style>.cls-1{fill:#271d26;}</style></defs><g id="Layer_2" data-name="Layer 2"><g id="Objects"><path class="cls-1" d="M29.11,18.2A3.71,3.71,0,0,1,28.65,20L19.45,9.66l9.1-7.95a3.63,3.63,0,0,1,.56,1.93ZM14.56,11.53,27.21.46A3.56,3.56,0,0,0,25.47,0H3.64A3.49,3.49,0,0,0,1.91.46Zm3.52-.67-2.92,2.56a.94.94,0,0,1-.6.23.9.9,0,0,1-.6-.23L11,10.86,1.72,21.27a3.51,3.51,0,0,0,1.92.56H25.47a3.49,3.49,0,0,0,1.92-.56ZM.57,1.71A3.55,3.55,0,0,0,0,3.64V18.2A3.6,3.6,0,0,0,.47,20L9.66,9.66Z"/></g></g></svg>