<svg xmlns="http://www.w3.org/2000/svg" viewBox="0 0 29.44 29.44"><defs><style>.cls-1{fill:#271d26;}</style></defs><g id="Layer_2" data-name="Layer 2"><g id="Objects"><path class="cls-1" d="M29.41,13.74A14.73,14.73,0,0,0,15.7,0V0H13.75V0A14.74,14.74,0,0,0,0,13.74H0v2H0A14.73,14.73,0,0,0,13.75,29.41v0H15.7v0A14.72,14.72,0,0,0,29.41,15.7h0v-2ZM9.22,3.21A15.26,15.26,0,0,0,6.91,7.85H4A12.75,12.75,0,0,1,9.22,3.21ZM2.94,9.81H6.39a23.33,23.33,0,0,0-.49,3.93H2a12.85,12.85,0,0,1,.94-3.93ZM2,15.7H5.9a23.33,23.33,0,0,0,.49,3.93H2.94A12.85,12.85,0,0,1,2,15.7Zm2,5.89H6.9a15,15,0,0,0,2.32,4.64A12.61,12.61,0,0,1,4,21.59Zm9.78,5.76c-2-.53-3.76-2.7-4.82-5.76h4.82Zm0-7.72H8.38a22,22,0,0,1-.51-3.93h5.88Zm0-5.89H7.87a22,22,0,0,1,.51-3.93h5.37Zm0-5.89H8.93C10,4.79,11.72,2.63,13.75,2.09Zm11.73,0H22.54a15.28,15.28,0,0,0-2.32-4.64,12.84,12.84,0,0,1,5.26,4.64ZM15.7,2.09c2,.54,3.76,2.7,4.81,5.76H15.7Zm0,7.72h5.37a23.94,23.94,0,0,1,.51,3.93H15.7Zm0,5.89h5.88a22.9,22.9,0,0,1-.51,3.93H15.7Zm0,11.65V21.59h4.81c-1.05,3.06-2.79,5.23-4.81,5.76Zm4.52-1.12a15.39,15.39,0,0,0,2.32-4.64h2.94a12.7,12.7,0,0,1-5.26,4.64Zm6.28-6.6H23.05a23.33,23.33,0,0,0,.49-3.93h3.9a12.56,12.56,0,0,1-.94,3.93Zm-3-5.89a23.33,23.33,0,0,0-.49-3.93H26.5a12.56,12.56,0,0,1,.94,3.93Z"/></g></g></svg>