<svg xmlns="http://www.w3.org/2000/svg" viewBox="0 0 28.64 23.37"><defs><style>.cls-1{fill:#271d26;}</style></defs><g id="Layer_2" data-name="Layer 2"><g id="Objects"><path class="cls-1" d="M4.43,23.37a1.28,1.28,0,0,1-1-.59l-3-4.3a2.14,2.14,0,0,1-.34-.73A2.75,2.75,0,0,1,0,16.92a.76.76,0,0,0,0-.16,3.06,3.06,0,0,1,.05-.36,11.82,11.82,0,0,1,.48-1.65A13.22,13.22,0,0,1,2,12.06a24.82,24.82,0,0,1,2.8-3.44A28.6,28.6,0,0,1,9.42,4.77a29.84,29.84,0,0,1,4.2-2.52A26.85,26.85,0,0,1,17.18.81,17.94,17.94,0,0,1,20.05.15,15.12,15.12,0,0,1,22.2,0a7.15,7.15,0,0,1,1.38.14l.55.13a2.6,2.6,0,0,1,.73.39,2.18,2.18,0,0,1,.56.58l3,4.31a1.23,1.23,0,0,1,.22,1,1,1,0,0,1-.32.59,2,2,0,0,1-.59.38l-6.1,1.91a1.33,1.33,0,0,1-1,0,1.79,1.79,0,0,1-.8-.63L18.74,7.13A.48.48,0,0,0,18.57,7a.71.71,0,0,0-.19-.08A5.12,5.12,0,0,0,17,7.17a12.31,12.31,0,0,0-1.79.72,17.89,17.89,0,0,0-2.53,1.55,18.85,18.85,0,0,0-2.36,1.83A13,13,0,0,0,9,12.69a4.26,4.26,0,0,0-.57.91l-.13.33a.56.56,0,0,0,.07.38l1.3,1.85a1.75,1.75,0,0,1,.23,1.24,1.47,1.47,0,0,1-.3.7v0L5.46,22.85a1.42,1.42,0,0,1-1,.52Z"/></g></g></svg>