<svg xmlns="http://www.w3.org/2000/svg" xmlns:xlink="http://www.w3.org/1999/xlink" viewBox="0 0 3.16 3.39"><defs><style>.cls-1{isolation:isolate;}.cls-2{mix-blend-mode:screen;}.cls-3{fill:url(#radial-gradient);}</style><radialGradient id="radial-gradient" cx="-13.46" cy="5.48" r="143.06" gradientUnits="userSpaceOnUse"><stop offset="0" stop-color="#00d3ff"/><stop offset="0.03" stop-color="#00bde4"/><stop offset="0.1" stop-color="#0096b5"/><stop offset="0.17" stop-color="#00728a"/><stop offset="0.24" stop-color="#005365"/><stop offset="0.32" stop-color="#003945"/><stop offset="0.41" stop-color="#00242c"/><stop offset="0.51" stop-color="#001418"/><stop offset="0.62" stop-color="#00090a"/><stop offset="0.75" stop-color="#000202"/><stop offset="1"/></radialGradient></defs><g class="cls-1"><g id="Layer_2" data-name="Layer 2"><g id="Layer_1-2" data-name="Layer 1"><g class="cls-2"><path class="cls-3" d="M2.21,2.24c-.11.08-.22.24-.36.26a.51.51,0,0,1-.38-.15,2.4,2.4,0,0,1-.57-.7.37.37,0,0,1,0-.38C1,1.16,1.1,1.1,1.19,1S1.17.49,1,.3.87,0,.72,0,.45.14.36.23A1.1,1.1,0,0,0,0,1V1a1.86,1.86,0,0,0,.11.52A1.91,1.91,0,0,0,.34,2a4.34,4.34,0,0,0,.7.84A2.16,2.16,0,0,0,2,3.36a1.06,1.06,0,0,0,.92-.22c.09-.07.27-.19.28-.32A.45.45,0,0,0,3,2.49C2.77,2.32,2.47,2,2.21,2.24Z"/></g></g></g></g></svg>