<svg xmlns="http://www.w3.org/2000/svg" xmlns:xlink="http://www.w3.org/1999/xlink" viewBox="0 0 24.42 24.43"><defs><style>.cls-1{isolation:isolate;}.cls-2,.cls-3{mix-blend-mode:screen;}.cls-2{fill:url(#radial-gradient);}.cls-3{fill:url(#radial-gradient-2);}</style><radialGradient id="radial-gradient" cx="14.6" cy="1.77" r="86.59" gradientUnits="userSpaceOnUse"><stop offset="0" stop-color="#00d3ff"/><stop offset="0.03" stop-color="#00bde4"/><stop offset="0.1" stop-color="#0096b5"/><stop offset="0.17" stop-color="#00728a"/><stop offset="0.24" stop-color="#005365"/><stop offset="0.32" stop-color="#003945"/><stop offset="0.41" stop-color="#00242c"/><stop offset="0.51" stop-color="#001418"/><stop offset="0.62" stop-color="#00090a"/><stop offset="0.75" stop-color="#000202"/><stop offset="1"/></radialGradient><radialGradient id="radial-gradient-2" cx="14.6" cy="1.77" r="86.59" xlink:href="#radial-gradient"/></defs><g class="cls-1"><g id="Layer_2" data-name="Layer 2"><g id="Layer_1-2" data-name="Layer 1"><path class="cls-2" d="M23,8.75,15.67,1.43a4.9,4.9,0,0,0-6.92,0L1.43,8.75a4.9,4.9,0,0,0,0,6.92L8.75,23a4.88,4.88,0,0,0,6.92,0L23,15.67a4.9,4.9,0,0,0,0-6.92Z"/><path class="cls-3" d="M13.7,10.35a3.87,3.87,0,0,0-4.23.84L6.85,13.8l1.94,1.95,2.62-2.62a1.21,1.21,0,0,1,.37-.25,1.19,1.19,0,0,1,.87,0,1.34,1.34,0,0,1,.37.25l2.61,2.62,1.94-1.95L15,11.19A4,4,0,0,0,13.7,10.35Z"/></g></g></g></svg>