<svg xmlns="http://www.w3.org/2000/svg" xmlns:xlink="http://www.w3.org/1999/xlink" viewBox="0 0 412.06 248.38"><defs><style>.cls-1{fill:none;}.cls-2{isolation:isolate;}.cls-3{clip-path:url(#clip-path);}.cls-4{fill:url(#linear-gradient);}.cls-5{fill:url(#linear-gradient-2);}.cls-6{fill:url(#linear-gradient-3);}.cls-7{fill:url(#linear-gradient-4);}.cls-8{fill:url(#linear-gradient-5);}.cls-9{fill:url(#linear-gradient-6);}.cls-10{fill:url(#linear-gradient-7);}.cls-11{fill:url(#linear-gradient-8);}.cls-12{fill:url(#linear-gradient-9);}.cls-13{fill:url(#linear-gradient-10);}.cls-14{fill:url(#linear-gradient-11);}.cls-15{fill:url(#linear-gradient-12);}.cls-16{fill:url(#linear-gradient-13);}.cls-17{fill:url(#linear-gradient-14);}.cls-18{fill:url(#linear-gradient-15);}.cls-19{fill:url(#linear-gradient-16);}.cls-20{fill:url(#linear-gradient-17);}.cls-21{fill:url(#linear-gradient-18);}.cls-22{fill:url(#linear-gradient-19);}.cls-23{fill:url(#linear-gradient-20);}.cls-24{fill:url(#linear-gradient-21);}.cls-25{fill:url(#linear-gradient-22);}.cls-26{fill:url(#linear-gradient-23);}.cls-27{fill:url(#linear-gradient-24);}.cls-28{fill:url(#linear-gradient-25);}.cls-29{fill:url(#linear-gradient-26);}.cls-30{fill:url(#linear-gradient-27);}.cls-31{fill:url(#linear-gradient-28);}.cls-32{fill:url(#linear-gradient-29);}.cls-33{fill:url(#linear-gradient-30);}.cls-34{fill:url(#linear-gradient-31);}.cls-35{fill:url(#linear-gradient-32);}.cls-36{fill:url(#linear-gradient-33);}.cls-37{fill:url(#linear-gradient-34);}.cls-38{fill:url(#linear-gradient-35);}.cls-39{fill:url(#linear-gradient-36);}.cls-40{fill:url(#linear-gradient-37);}.cls-41{fill:url(#linear-gradient-38);}.cls-42{fill:url(#linear-gradient-39);}.cls-43{fill:url(#linear-gradient-40);}.cls-44{fill:url(#linear-gradient-41);}.cls-45{fill:url(#linear-gradient-42);}.cls-46{opacity:0.5;mix-blend-mode:screen;}.cls-47{fill:url(#linear-gradient-43);}.cls-48{fill:url(#linear-gradient-44);}.cls-49{fill:url(#linear-gradient-45);}.cls-50{fill:url(#linear-gradient-46);}.cls-51{fill:url(#linear-gradient-47);}.cls-52{fill:url(#linear-gradient-48);}.cls-53{fill:url(#linear-gradient-49);}.cls-54{fill:url(#linear-gradient-50);}.cls-55{fill:url(#linear-gradient-51);}.cls-56{fill:url(#linear-gradient-52);}.cls-57{fill:url(#linear-gradient-53);}.cls-58{fill:url(#linear-gradient-54);}.cls-59{fill:url(#linear-gradient-55);}.cls-60{fill:url(#linear-gradient-56);}.cls-61{fill:url(#linear-gradient-57);}.cls-62{fill:url(#linear-gradient-58);}.cls-63{fill:url(#linear-gradient-59);}.cls-64{fill:url(#linear-gradient-60);}.cls-65{fill:url(#linear-gradient-61);}.cls-66{fill:url(#linear-gradient-62);}.cls-67{fill:url(#linear-gradient-63);}.cls-68{fill:url(#linear-gradient-64);}.cls-69{fill:url(#linear-gradient-65);}.cls-70{fill:url(#linear-gradient-66);}</style><clipPath id="clip-path" transform="translate(50.64 33.88)"><rect class="cls-1" width="314.2" height="189.03"/></clipPath><linearGradient id="linear-gradient" x1="-37.83" y1="201.69" x2="-12.2" y2="176.06" gradientTransform="translate(126.23 73.01) rotate(45)" gradientUnits="userSpaceOnUse"><stop offset="0" stop-color="#2e3844"/><stop offset="0.85" stop-color="#1c2834"/></linearGradient><linearGradient id="linear-gradient-2" x1="17.68" y1="201.69" x2="43.31" y2="176.06" gradientTransform="translate(142.49 33.76) rotate(45)" xlink:href="#linear-gradient"/><linearGradient id="linear-gradient-3" x1="73.19" y1="176.06" x2="98.82" y2="201.69" gradientTransform="translate(158.75 -5.49) rotate(45)" xlink:href="#linear-gradient"/><linearGradient id="linear-gradient-4" x1="141.51" y1="214.51" x2="141.51" y2="163.25" gradientTransform="translate(175 -44.74) rotate(45)" xlink:href="#linear-gradient"/><linearGradient id="linear-gradient-5" x1="208.12" y1="208.1" x2="185.92" y2="169.66" gradientTransform="translate(191.26 -83.99) rotate(45)" xlink:href="#linear-gradient"/><linearGradient id="linear-gradient-6" x1="239.71" y1="201.69" x2="265.34" y2="176.06" gradientTransform="translate(207.52 -123.24) rotate(45)" xlink:href="#linear-gradient"/><linearGradient id="linear-gradient-7" x1="327.26" y1="199.97" x2="288.81" y2="177.78" gradientTransform="translate(223.78 -162.49) rotate(45)" xlink:href="#linear-gradient"/><linearGradient id="linear-gradient-8" x1="-10.08" y1="173.94" x2="15.55" y2="148.31" gradientTransform="translate(114.73 45.25) rotate(45)" xlink:href="#linear-gradient"/><linearGradient id="linear-gradient-9" x1="45.43" y1="173.94" x2="71.06" y2="148.31" gradientTransform="translate(130.99 6) rotate(45)" xlink:href="#linear-gradient"/><linearGradient id="linear-gradient-10" x1="100.94" y1="173.94" x2="126.57" y2="148.31" gradientTransform="translate(147.25 -33.25) rotate(45)" xlink:href="#linear-gradient"/><linearGradient id="linear-gradient-11" x1="237.59" y1="173.94" x2="211.96" y2="148.31" gradientTransform="translate(179.77 -111.75) rotate(45)" xlink:href="#linear-gradient"/><linearGradient id="linear-gradient-12" x1="299.5" y1="172.22" x2="261.06" y2="150.03" gradientTransform="translate(196.02 -151) rotate(45)" xlink:href="#linear-gradient"/><linearGradient id="linear-gradient-13" x1="322.97" y1="173.94" x2="348.6" y2="148.31" gradientTransform="translate(212.28 -190.25) rotate(45)" xlink:href="#linear-gradient"/><linearGradient id="linear-gradient-14" x1="-37.83" y1="145.23" x2="-12.2" y2="119.61" gradientTransform="translate(86.31 56.47) rotate(45)" xlink:href="#linear-gradient"/><linearGradient id="linear-gradient-15" x1="86" y1="158.05" x2="86" y2="106.79" gradientTransform="translate(118.82 -22.03) rotate(45)" xlink:href="#linear-gradient"/><linearGradient id="linear-gradient-16" x1="239.71" y1="145.23" x2="265.34" y2="119.61" gradientTransform="translate(167.6 -139.78) rotate(45)" xlink:href="#linear-gradient"/><linearGradient id="linear-gradient-17" x1="295.22" y1="119.61" x2="320.85" y2="145.23" gradientTransform="translate(183.86 -179.03) rotate(45)" xlink:href="#linear-gradient"/><linearGradient id="linear-gradient-18" x1="-10.08" y1="117.48" x2="15.55" y2="91.85" gradientTransform="translate(74.81 28.72) rotate(45)" xlink:href="#linear-gradient"/><linearGradient id="linear-gradient-19" x1="45.43" y1="117.48" x2="71.06" y2="91.85" gradientTransform="translate(91.07 -10.53) rotate(45)" xlink:href="#linear-gradient"/><linearGradient id="linear-gradient-20" x1="267.47" y1="117.48" x2="293.1" y2="91.85" gradientTransform="translate(156.1 -167.53) rotate(45)" xlink:href="#linear-gradient"/><linearGradient id="linear-gradient-21" x1="322.97" y1="117.48" x2="348.6" y2="91.85" gradientTransform="translate(172.36 -206.78) rotate(45)" xlink:href="#linear-gradient"/><linearGradient id="linear-gradient-22" x1="-37.83" y1="63.15" x2="-12.2" y2="88.78" gradientTransform="translate(46.39 39.94) rotate(45)" xlink:href="#linear-gradient"/><linearGradient id="linear-gradient-23" x1="30.49" y1="101.59" x2="30.49" y2="50.33" gradientTransform="translate(62.64 0.69) rotate(45)" xlink:href="#linear-gradient"/><linearGradient id="linear-gradient-24" x1="239.71" y1="63.15" x2="265.34" y2="88.78" gradientTransform="translate(127.68 -156.31) rotate(45)" xlink:href="#linear-gradient"/><linearGradient id="linear-gradient-25" x1="-10.08" y1="61.02" x2="15.55" y2="35.39" gradientTransform="translate(34.89 12.18) rotate(45)" xlink:href="#linear-gradient"/><linearGradient id="linear-gradient-26" x1="45.43" y1="61.02" x2="71.06" y2="35.39" gradientTransform="translate(51.15 -27.07) rotate(45)" xlink:href="#linear-gradient"/><linearGradient id="linear-gradient-27" x1="126.57" y1="61.02" x2="100.94" y2="35.39" gradientTransform="translate(67.41 -66.32) rotate(45)" xlink:href="#linear-gradient"/><linearGradient id="linear-gradient-28" x1="211.96" y1="61.02" x2="237.59" y2="35.39" gradientTransform="translate(99.92 -144.82) rotate(45)" xlink:href="#linear-gradient"/><linearGradient id="linear-gradient-29" x1="267.47" y1="61.02" x2="293.1" y2="35.39" gradientTransform="translate(116.18 -184.07) rotate(45)" xlink:href="#linear-gradient"/><linearGradient id="linear-gradient-30" x1="346.89" y1="28.99" x2="324.69" y2="67.43" gradientTransform="translate(132.44 -223.32) rotate(45)" xlink:href="#linear-gradient"/><linearGradient id="linear-gradient-31" x1="-25.02" y1="45.13" x2="-25.02" y2="-6.12" gradientTransform="translate(6.47 23.4) rotate(45)" xlink:href="#linear-gradient"/><linearGradient id="linear-gradient-32" x1="73.19" y1="32.32" x2="98.82" y2="6.69" gradientTransform="translate(38.98 -55.1) rotate(45)" xlink:href="#linear-gradient"/><linearGradient id="linear-gradient-33" x1="128.7" y1="32.32" x2="154.32" y2="6.69" gradientTransform="translate(55.24 -94.35) rotate(45)" xlink:href="#linear-gradient"/><linearGradient id="linear-gradient-34" x1="184.2" y1="6.69" x2="209.83" y2="32.32" gradientTransform="translate(71.5 -133.6) rotate(45)" xlink:href="#linear-gradient"/><linearGradient id="linear-gradient-35" x1="295.22" y1="32.32" x2="320.85" y2="6.69" gradientTransform="translate(104.01 -212.1) rotate(45)" xlink:href="#linear-gradient"/><linearGradient id="linear-gradient-36" x1="-10.08" y1="4.57" x2="15.55" y2="-21.06" gradientTransform="translate(-5.03 -4.35) rotate(45)" xlink:href="#linear-gradient"/><linearGradient id="linear-gradient-37" x1="71.06" y1="4.57" x2="45.43" y2="-21.06" gradientTransform="translate(11.23 -43.6) rotate(45)" xlink:href="#linear-gradient"/><linearGradient id="linear-gradient-38" x1="132.98" y1="2.85" x2="94.53" y2="-19.35" gradientTransform="translate(27.49 -82.85) rotate(45)" xlink:href="#linear-gradient"/><linearGradient id="linear-gradient-39" x1="156.45" y1="4.57" x2="182.08" y2="-21.06" gradientTransform="translate(43.74 -122.1) rotate(45)" xlink:href="#linear-gradient"/><linearGradient id="linear-gradient-40" x1="211.96" y1="4.57" x2="237.59" y2="-21.06" gradientTransform="translate(60 -161.35) rotate(45)" xlink:href="#linear-gradient"/><linearGradient id="linear-gradient-41" x1="291.38" y1="-27.47" x2="269.18" y2="10.97" gradientTransform="translate(76.26 -200.6) rotate(45)" xlink:href="#linear-gradient"/><linearGradient id="linear-gradient-42" x1="322.97" y1="4.57" x2="348.6" y2="-21.06" gradientTransform="translate(92.52 -239.85) rotate(45)" xlink:href="#linear-gradient"/><linearGradient id="linear-gradient-43" x1="6.08" y1="114.21" x2="30.51" y2="89.78" gradientTransform="translate(77.48 16.94) rotate(45)" xlink:href="#linear-gradient"/><linearGradient id="linear-gradient-44" x1="38.03" y1="146.16" x2="52.31" y2="131.88" gradientTransform="translate(111.53 8.78) rotate(45)" xlink:href="#linear-gradient"/><linearGradient id="linear-gradient-45" x1="91.3" y1="161.88" x2="99.45" y2="153.73" gradientTransform="translate(139.52 -21.22) rotate(45)" xlink:href="#linear-gradient"/><linearGradient id="linear-gradient-46" x1="96.38" y1="75.45" x2="110.67" y2="61.16" gradientTransform="translate(78.62 -53.2) rotate(45)" xlink:href="#linear-gradient"/><linearGradient id="linear-gradient-47" x1="69.25" y1="96.1" x2="76.39" y2="88.96" gradientTransform="translate(86.76 -24.39) rotate(45)" xlink:href="#linear-gradient"/><linearGradient id="linear-gradient-48" x1="27.51" y1="75.75" x2="34.66" y2="68.61" gradientTransform="translate(60.15 -0.84) rotate(45)" xlink:href="#linear-gradient"/><linearGradient id="linear-gradient-49" x1="38.41" y1="86.65" x2="45.55" y2="79.51" gradientTransform="translate(71.04 -5.35) rotate(45)" xlink:href="#linear-gradient"/><linearGradient id="linear-gradient-50" x1="116.94" y1="-13.67" x2="124.08" y2="-20.82" gradientTransform="translate(23.1 -90.27) rotate(45)" xlink:href="#linear-gradient"/><linearGradient id="linear-gradient-51" x1="75.59" y1="146.16" x2="89.88" y2="131.88" gradientTransform="translate(122.53 -17.78) rotate(45)" xlink:href="#linear-gradient"/><linearGradient id="linear-gradient-52" x1="140.6" y1="231.98" x2="146.07" y2="226.51" gradientTransform="matrix(1, 0, 0, 1, 0, 0)" xlink:href="#linear-gradient"/><linearGradient id="linear-gradient-53" x1="156.9" y1="28.12" x2="162.36" y2="22.66" gradientTransform="matrix(1, 0, 0, 1, 0, 0)" xlink:href="#linear-gradient"/><linearGradient id="linear-gradient-54" x1="60.46" y1="59.46" x2="84.53" y2="35.39" gradientTransform="translate(54.77 -37.37) rotate(45)" xlink:href="#linear-gradient"/><linearGradient id="linear-gradient-55" x1="216.26" y1="108.77" x2="240.7" y2="84.33" gradientTransform="translate(227.97 -150.48) rotate(45)" xlink:href="#linear-gradient"/><linearGradient id="linear-gradient-56" x1="248.21" y1="140.72" x2="262.5" y2="126.43" gradientTransform="translate(208.27 -232.69) rotate(45)" xlink:href="#linear-gradient"/><linearGradient id="linear-gradient-57" x1="301.49" y1="156.43" x2="309.63" y2="148.28" gradientTransform="translate(135.84 -300.25) rotate(45)" xlink:href="#linear-gradient"/><linearGradient id="linear-gradient-58" x1="306.57" y1="70" x2="320.85" y2="55.72" gradientTransform="translate(58.65 -153.23) rotate(45)" xlink:href="#linear-gradient"/><linearGradient id="linear-gradient-59" x1="279.44" y1="90.66" x2="286.58" y2="83.51" gradientTransform="translate(128.19 -172.88) rotate(45)" xlink:href="#linear-gradient"/><linearGradient id="linear-gradient-60" x1="237.7" y1="70.31" x2="244.84" y2="63.16" gradientTransform="translate(185.05 -108.63) rotate(45)" xlink:href="#linear-gradient"/><linearGradient id="linear-gradient-61" x1="248.59" y1="81.2" x2="255.73" y2="74.06" gradientTransform="translate(174.16 -134.93) rotate(45)" xlink:href="#linear-gradient"/><linearGradient id="linear-gradient-62" x1="327.13" y1="-19.12" x2="334.27" y2="-26.26" gradientTransform="translate(-30.85 -19.2) rotate(45)" xlink:href="#linear-gradient"/><linearGradient id="linear-gradient-63" x1="285.77" y1="140.72" x2="300.06" y2="126.43" gradientTransform="translate(144.14 -259.25) rotate(45)" xlink:href="#linear-gradient"/><linearGradient id="linear-gradient-64" x1="300.15" y1="192.65" x2="305.61" y2="187.19" gradientTransform="translate(600.38 209.78) rotate(180)" xlink:href="#linear-gradient"/><linearGradient id="linear-gradient-65" x1="316.44" y1="-11.2" x2="321.9" y2="-16.67" gradientTransform="translate(600.38 209.78) rotate(180)" xlink:href="#linear-gradient"/><linearGradient id="linear-gradient-66" x1="270.65" y1="54.01" x2="294.71" y2="29.94" gradientTransform="translate(96.85 -95.64) rotate(45)" xlink:href="#linear-gradient"/></defs><g class="cls-2"><g id="Layer_2" data-name="Layer 2"><g id="OBJECTS"><g class="cls-3"><rect class="cls-4" x="-43.14" y="170.75" width="36.24" height="36.24" transform="translate(-90.24 71.51) rotate(-45)"/><rect class="cls-5" x="12.37" y="170.75" width="36.24" height="36.24" transform="translate(-73.98 110.76) rotate(-45)"/><rect class="cls-6" x="67.88" y="170.75" width="36.24" height="36.24" transform="translate(-57.72 150.01) rotate(-45)"/><rect class="cls-7" x="123.39" y="170.75" width="36.24" height="36.24" transform="translate(-41.46 189.26) rotate(-45)"/><rect class="cls-8" x="178.9" y="170.75" width="36.24" height="36.24" transform="translate(-25.21 228.51) rotate(-45)"/><rect class="cls-9" x="234.4" y="170.75" width="36.24" height="36.24" transform="translate(-8.95 267.76) rotate(-45)"/><rect class="cls-10" x="289.91" y="170.75" width="36.24" height="36.24" transform="translate(7.31 307.01) rotate(-45)"/><rect class="cls-11" x="-15.38" y="143" width="36.24" height="36.24" transform="translate(-62.48 83.01) rotate(-45)"/><rect class="cls-12" x="40.13" y="143" width="36.24" height="36.24" transform="translate(-46.23 122.26) rotate(-45)"/><rect class="cls-13" x="95.63" y="143" width="36.24" height="36.24" transform="translate(-29.97 161.51) rotate(-45)"/><rect class="cls-14" x="206.65" y="143" width="36.24" height="36.24" transform="translate(2.55 240.01) rotate(-45)"/><rect class="cls-15" x="262.16" y="143" width="36.24" height="36.24" transform="translate(18.81 279.26) rotate(-45)"/><rect class="cls-16" x="317.67" y="143" width="36.24" height="36.24" transform="translate(35.06 318.51) rotate(-45)"/><rect class="cls-17" x="-43.14" y="114.3" width="36.24" height="36.24" transform="translate(-50.32 54.97) rotate(-45)"/><rect class="cls-18" x="67.88" y="114.3" width="36.24" height="36.24" transform="translate(-17.8 133.47) rotate(-45)"/><rect class="cls-19" x="234.4" y="114.3" width="36.24" height="36.24" transform="translate(30.97 251.23) rotate(-45)"/><rect class="cls-20" x="289.91" y="114.3" width="36.24" height="36.24" transform="translate(47.23 290.48) rotate(-45)"/><rect class="cls-21" x="-15.38" y="86.54" width="36.24" height="36.24" transform="translate(-22.56 66.47) rotate(-45)"/><rect class="cls-22" x="40.13" y="86.54" width="36.24" height="36.24" transform="translate(-6.31 105.72) rotate(-45)"/><rect class="cls-23" x="262.16" y="86.54" width="36.24" height="36.24" transform="translate(58.73 262.72) rotate(-45)"/><rect class="cls-24" x="317.67" y="86.54" width="36.24" height="36.24" transform="translate(74.98 301.97) rotate(-45)"/><rect class="cls-25" x="-43.14" y="57.84" width="36.24" height="36.24" transform="translate(-10.4 38.44) rotate(-45)"/><rect class="cls-26" x="12.37" y="57.84" width="36.24" height="36.24" transform="translate(5.86 77.69) rotate(-45)"/><rect class="cls-27" x="234.4" y="57.84" width="36.24" height="36.24" transform="translate(70.89 234.69) rotate(-45)"/><rect class="cls-28" x="-15.38" y="30.09" width="36.24" height="36.24" transform="translate(17.36 49.93) rotate(-45)"/><rect class="cls-29" x="40.13" y="30.09" width="36.24" height="36.24" transform="translate(33.62 89.18) rotate(-45)"/><rect class="cls-30" x="95.63" y="30.09" width="36.24" height="36.24" transform="translate(49.87 128.43) rotate(-45)"/><rect class="cls-31" x="206.65" y="30.09" width="36.24" height="36.24" transform="translate(82.39 206.94) rotate(-45)"/><rect class="cls-32" x="262.16" y="30.09" width="36.24" height="36.24" transform="translate(98.65 246.19) rotate(-45)"/><rect class="cls-33" x="317.67" y="30.09" width="36.24" height="36.24" transform="translate(114.91 285.44) rotate(-45)"/><rect class="cls-34" x="-43.14" y="1.38" width="36.24" height="36.24" transform="translate(29.52 21.9) rotate(-45)"/><rect class="cls-35" x="67.88" y="1.38" width="36.24" height="36.24" transform="translate(62.04 100.4) rotate(-45)"/><rect class="cls-36" x="123.39" y="1.38" width="36.24" height="36.24" transform="translate(78.3 139.65) rotate(-45)"/><rect class="cls-37" x="178.9" y="1.38" width="36.24" height="36.24" transform="translate(94.56 178.9) rotate(-45)"/><rect class="cls-38" x="289.91" y="1.38" width="36.24" height="36.24" transform="translate(127.07 257.4) rotate(-45)"/><rect class="cls-39" x="-15.38" y="-26.37" width="36.24" height="36.24" transform="translate(57.28 33.4) rotate(-45)"/><rect class="cls-40" x="40.13" y="-26.37" width="36.24" height="36.24" transform="translate(73.54 72.65) rotate(-45)"/><rect class="cls-41" x="95.63" y="-26.37" width="36.24" height="36.24" transform="translate(89.79 111.9) rotate(-45)"/><rect class="cls-42" x="151.14" y="-26.37" width="36.24" height="36.24" transform="translate(106.05 151.15) rotate(-45)"/><rect class="cls-43" x="206.65" y="-26.37" width="36.24" height="36.24" transform="translate(122.31 190.4) rotate(-45)"/><rect class="cls-44" x="262.16" y="-26.37" width="36.24" height="36.24" transform="translate(138.57 229.65) rotate(-45)"/><rect class="cls-45" x="317.67" y="-26.37" width="36.24" height="36.24" transform="translate(154.83 268.9) rotate(-45)"/><g class="cls-46"><rect class="cls-47" x="1.02" y="84.71" width="34.56" height="34.56" transform="translate(-16.12 76.69) rotate(-45)"/><rect class="cls-48" x="35.07" y="128.92" width="20.2" height="20.2" transform="translate(-34.43 106.54) rotate(-45)"/><rect class="cls-49" x="89.62" y="152.04" width="11.52" height="11.52" transform="translate(-33 147.54) rotate(-45)"/><rect class="cls-50" x="93.42" y="58.2" width="20.2" height="20.2" transform="translate(32.67 127.09) rotate(-45)"/><rect class="cls-51" x="67.77" y="87.48" width="10.1" height="10.1" transform="translate(6.54 112.47) rotate(-45)"/><rect class="cls-52" x="26.03" y="67.13" width="10.1" height="10.1" transform="translate(8.71 77) rotate(-45)"/><rect class="cls-53" x="36.93" y="78.03" width="10.1" height="10.1" transform="translate(4.19 87.89) rotate(-45)"/><rect class="cls-54" x="115.46" y="-22.3" width="10.1" height="10.1" transform="translate(98.14 114.04) rotate(-45)"/><rect class="cls-55" x="72.63" y="128.92" width="20.2" height="20.2" transform="translate(-23.43 133.1) rotate(-45)"/><polyline class="cls-56" points="143.34 234.71 137.87 229.24 143.34 223.78 148.8 229.24"/><polyline class="cls-57" points="159.63 30.85 154.17 25.39 159.63 19.93 165.1 25.39"/><rect class="cls-58" x="55.48" y="30.4" width="34.04" height="34.04" transform="translate(38.34 99.03) rotate(-45)"/></g><g class="cls-46"><rect class="cls-59" x="303.98" y="62.07" width="34.56" height="34.56" transform="translate(655.17 -57.82) rotate(135)"/><rect class="cls-60" x="284.28" y="32.22" width="20.2" height="20.2" transform="translate(583.11 -102.03) rotate(135)"/><rect class="cls-61" x="238.41" y="17.78" width="11.52" height="11.52" transform="translate(484.12 -98.59) rotate(135)"/><rect class="cls-62" x="225.92" y="102.94" width="20.2" height="20.2" transform="translate(533.49 59.95) rotate(135)"/><rect class="cls-63" x="261.68" y="83.76" width="10.1" height="10.1" transform="translate(568.78 -3.11) rotate(135)"/><rect class="cls-64" x="303.42" y="104.11" width="10.1" height="10.1" transform="translate(654.42 2.11) rotate(135)"/><rect class="cls-65" x="292.52" y="93.22" width="10.1" height="10.1" transform="translate(628.12 -8.78) rotate(135)"/><rect class="cls-66" x="213.99" y="193.54" width="10.1" height="10.1" transform="translate(564.99 218.01) rotate(135)"/><rect class="cls-67" x="246.72" y="32.22" width="20.2" height="20.2" transform="translate(518.99 -75.47) rotate(135)"/><polyline class="cls-68" points="297.5 14.39 302.96 19.86 297.5 25.32 292.04 19.86"/><polyline class="cls-69" points="281.21 218.25 286.67 223.71 281.21 229.17 275.74 223.71"/><rect class="cls-70" x="250.04" y="116.9" width="34.04" height="34.04" transform="translate(601.23 73.66) rotate(135)"/></g></g></g></g></g></svg>