<svg xmlns="http://www.w3.org/2000/svg" width="674.781" height="411.625" viewBox="0 0 674.781 411.625">
  <defs>
    <style>
      .cls-1 {
        fill: #201d1e;
        fill-rule: evenodd;
        opacity: 0.5;
      }
    </style>
  </defs>
  <path id="Compound_Shape" data-name="Compound Shape" class="cls-1" d="M504.39,714.258c-111.706,9.843-183,89.062-284.95,115.34C146,848.519,67.269,828.642.214,789.986V1125.02H675.22V763.379C625.382,729.919,567.859,708.663,504.39,714.258Zm0,0c-111.706,9.843-183,89.062-284.95,115.34C146,848.519,67.269,828.642.214,789.986V1125.02H675.22V763.379C625.382,729.919,567.859,708.663,504.39,714.258Zm0,0.016c-53.027,4.675-96.952,24.984-139.367,47.839,0,0,260.392,20.935,310.2,243.377V763.4C625.382,729.94,567.859,708.683,504.39,714.274Zm0,0c-53.027,4.675-96.952,24.984-139.367,47.839,0,0,260.392,20.935,310.2,243.377V763.4C625.382,729.94,567.859,708.683,504.39,714.274Z" transform="translate(-0.219 -713.375)"/>
</svg>
