<svg xmlns="http://www.w3.org/2000/svg" width="372.281" height="306.625" viewBox="0 0 372.281 306.625">
  <defs>
    <style>
      .cls-1 {
        fill: #424142;
        fill-rule: evenodd;
      }
    </style>
  </defs>
  <path id="Compound_Shape" data-name="Compound Shape" class="cls-1" d="M318.8,1110.25C360.5,1020.23,382.859,917,367.393,818.383c0,0,16.341,305.047-448.393,283.547v57.08H292.743a258.276,258.276,0,0,0,13.879-23.69C310.935,1127.09,314.894,1118.68,318.8,1110.25Zm0,0C360.5,1020.23,382.859,917,367.393,818.383c0,0,16.341,305.047-448.393,283.547v57.08H292.743a258.276,258.276,0,0,0,13.879-23.69C310.935,1127.09,314.894,1118.68,318.8,1110.25Z" transform="translate(0 -818.375)"/>
</svg>
