<svg xmlns="http://www.w3.org/2000/svg" width="674.781" height="130.812" viewBox="0 0 674.781 130.812">
  <defs>
    <style>
      .cls-1 {
        fill: #263f8f;
        fill-rule: evenodd;
      }
    </style>
  </defs>
  <path id="Compound_Shape" data-name="Compound Shape" class="cls-1" d="M506.905,684.265c-111.816,7.666-184.094,85.486-286.361,109.762C146.277,811.654,67.122,789.75.214,749.162v18.5C67.269,806.319,146,826.2,219.44,807.275,321.389,781,392.684,701.778,504.39,691.935c63.469-5.595,120.992,15.666,170.83,49.121v-5.6C626.233,701.758,569.637,679.972,506.905,684.265Zm0,0c-111.816,7.666-184.094,85.486-286.361,109.762C146.277,811.654,67.122,789.75.214,749.162v18.5C67.269,806.319,146,826.2,219.44,807.275,321.389,781,392.684,701.778,504.39,691.935c63.469-5.595,120.992,15.666,170.83,49.121v-5.6C626.233,701.758,569.637,679.972,506.905,684.265Z" transform="translate(-0.219 -683.688)"/>
</svg>
