<svg xmlns="http://www.w3.org/2000/svg" width="531.063" height="177.156" viewBox="0 0 531.063 177.156">
  <defs>
    <style>
      .cls-1 {
        fill: #2fa3dc;
        fill-rule: evenodd;
      }
    </style>
  </defs>
  <path id="Compound_Shape" data-name="Compound Shape" class="cls-1" d="M555.021,596.989l-7.747-.716c-3.056-.179-6.6-0.191-10.58-0.269-1.989,0-4.1-.134-6.29-0.04s-4.493.219-6.881,0.337-4.895.265-7.491,0.4l-7.992,1c-1.375.175-2.779,0.354-4.2,0.529-0.716.094-1.436,0.183-2.16,0.277l-1.091.138-0.269.037-0.138.016-0.272.057-0.538.11q-4.278.853-8.809,1.762-4.511.939-9.261,1.92c-3.154.651-6.409,1.787-9.725,2.7q-4.992,1.459-10.185,2.979c-3.471,1.017-6.791,2.433-10.294,3.666q-5.207,1.965-10.576,3.991-5.219,2.369-10.6,4.8a395.535,395.535,0,0,0-43.486,23.287c-7.178,4.569-14.608,9.082-21.83,13.965q-5.457,3.612-10.974,7.275-5.433,3.735-10.913,7.511c-14.616,10.006-29.2,20.419-44.1,30.091-7.359,5.017-14.927,9.57-22.4,14.237-1.182.72-2.377,1.392-3.571,2.075,0.057-.04.11-0.081,0.165-0.122l-26.345,14.372c-1.526.777-3.064,1.558-4.586,2.332-3.855,1.843-7.769,3.483-11.621,5.228q-2.895,1.289-5.774,2.572l-1.257.549-1.508.566-3.013,1.127q-3,1.123-5.989,2.238c-1.988.744-3.864,1.241-5.79,1.872a258.476,258.476,0,0,1-45.946,10.009c-7.476.977-14.813,1.392-21.923,1.787l-10.5.325q-5.169-.068-10.142-0.13c-3.32,0-6.557-.317-9.733-0.452q-2.387-.134-4.712-0.264c-1.548-.139-3.076-0.281-4.585-0.415-3.021-.281-5.979-0.468-8.838-0.81q-4.288-.543-8.327-1.05c-5.391-.659-10.372-1.692-15.049-2.343-4.633-.9-8.887-1.73-12.73-2.474-3.829-.871-7.247-1.644-10.219-2.32-2.987-.647-5.477-1.375-7.528-1.88-4.1-1.025-6.283-1.574-6.283-1.574s2.077,0.87,5.973,2.506c3.892,1.664,9.678,3.906,17.151,6.535,3.774,1.213,7.951,2.551,12.5,4.012q3.458,0.946,7.2,1.973c2.5,0.664,5.076,1.4,7.784,1.974a280.026,280.026,0,0,0,36.753,6.348,247.607,247.607,0,0,0,44.4.923,233.621,233.621,0,0,0,49.307-8.374c2.1-.61,4.331-1.155,6.343-1.831s4.035-1.359,6.065-2.038l3.046-1.026,1.526-.512,0.585-.208,0.383-.159,0.767-.309q3.071-1.239,6.162-2.49c4.11-1.7,8.3-3.3,12.415-5.1q6.055-2.942,12.16-5.912c2.023-1.013,4.11-1.933,6.086-3.035l5.956-3.28c3.966-2.21,8.008-4.346,11.9-6.7,7.74-4.764,15.613-9.432,23.125-14.518,30.387-20.019,58.719-42.013,86.482-60.445,14.006-8.96,27.539-17.635,41.044-24.54q5.048-2.631,9.953-5.192,5.035-2.265,9.916-4.464c3.252-1.436,6.413-3.076,9.6-4.277s6.319-2.388,9.391-3.548c1.534-.582,3.06-1.159,4.566-1.729a45.424,45.424,0,0,1,4.553-1.587q4.646-1.373,9.066-2.69,4.413-1.337,8.6-2.612l0.521-.159c-0.017,0,.223-0.061-0.009-0.008l0.131-.028,0.26-.061,1.034-.232q1.037-.238,2.054-0.468,2.038-.463,4.016-0.912,3.962-.891,7.662-1.729,3.749-.617,7.223-1.184l6.673-1.123c2.128-.346,4.167-0.46,6.1-0.684,3.9-.394,7.373-0.748,10.4-1.054,3.06-.138,5.66-0.26,7.768-0.358l6.469-.337Zm0,0-7.747-.716c-3.056-.179-6.6-0.191-10.58-0.269-1.989,0-4.1-.134-6.29-0.04s-4.493.219-6.881,0.337-4.895.265-7.491,0.4l-7.992,1c-1.375.175-2.779,0.354-4.2,0.529-0.716.094-1.436,0.183-2.16,0.277l-1.091.138-0.269.037-0.138.016-0.272.057-0.538.11q-4.278.853-8.809,1.762-4.511.939-9.261,1.92c-3.154.651-6.409,1.787-9.725,2.7q-4.992,1.459-10.185,2.979c-3.471,1.017-6.791,2.433-10.294,3.666q-5.207,1.965-10.576,3.991-5.219,2.369-10.6,4.8a395.535,395.535,0,0,0-43.486,23.287c-7.178,4.569-14.608,9.082-21.83,13.965q-5.457,3.612-10.974,7.275-5.433,3.735-10.913,7.511c-14.616,10.006-29.2,20.419-44.1,30.091-7.359,5.017-14.927,9.57-22.4,14.237-1.182.72-2.377,1.392-3.571,2.075,0.057-.04.11-0.081,0.165-0.122l-26.345,14.372c-1.526.777-3.064,1.558-4.586,2.332-3.855,1.843-7.769,3.483-11.621,5.228q-2.895,1.289-5.774,2.572l-1.257.549-1.508.566-3.013,1.127q-3,1.123-5.989,2.238c-1.988.744-3.864,1.241-5.79,1.872a258.476,258.476,0,0,1-45.946,10.009c-7.476.977-14.813,1.392-21.923,1.787l-10.5.325q-5.169-.068-10.142-0.13c-3.32,0-6.557-.317-9.733-0.452q-2.387-.134-4.712-0.264c-1.548-.139-3.076-0.281-4.585-0.415-3.021-.281-5.979-0.468-8.838-0.81q-4.288-.543-8.327-1.05c-5.391-.659-10.372-1.692-15.049-2.343-4.633-.9-8.887-1.73-12.73-2.474-3.829-.871-7.247-1.644-10.219-2.32-2.987-.647-5.477-1.375-7.528-1.88-4.1-1.025-6.283-1.574-6.283-1.574s2.077,0.87,5.973,2.506c3.892,1.664,9.678,3.906,17.151,6.535,3.774,1.213,7.951,2.551,12.5,4.012q3.458,0.946,7.2,1.973c2.5,0.664,5.076,1.4,7.784,1.974a280.026,280.026,0,0,0,36.753,6.348,247.607,247.607,0,0,0,44.4.923,233.621,233.621,0,0,0,49.307-8.374c2.1-.61,4.331-1.155,6.343-1.831s4.035-1.359,6.065-2.038l3.046-1.026,1.526-.512,0.585-.208,0.383-.159,0.767-.309q3.071-1.239,6.162-2.49c4.11-1.7,8.3-3.3,12.415-5.1q6.055-2.942,12.16-5.912c2.023-1.013,4.11-1.933,6.086-3.035l5.956-3.28c3.966-2.21,8.008-4.346,11.9-6.7,7.74-4.764,15.613-9.432,23.125-14.518,30.387-20.019,58.719-42.013,86.482-60.445,14.006-8.96,27.539-17.635,41.044-24.54q5.048-2.631,9.953-5.192,5.035-2.265,9.916-4.464c3.252-1.436,6.413-3.076,9.6-4.277s6.319-2.388,9.391-3.548c1.534-.582,3.06-1.159,4.566-1.729a45.424,45.424,0,0,1,4.553-1.587q4.646-1.373,9.066-2.69,4.413-1.337,8.6-2.612l0.521-.159c-0.017,0,.223-0.061-0.009-0.008l0.131-.028,0.26-.061,1.034-.232q1.037-.238,2.054-0.468,2.038-.463,4.016-0.912,3.962-.891,7.662-1.729,3.749-.617,7.223-1.184l6.673-1.123c2.128-.346,4.167-0.46,6.1-0.684,3.9-.394,7.373-0.748,10.4-1.054,3.06-.138,5.66-0.26,7.768-0.358l6.469-.337Z" transform="translate(-30.406 -595.938)"/>
</svg>
