<svg xmlns="http://www.w3.org/2000/svg" width="277.219" height="1042.938" viewBox="0 0 277.219 1042.938">
  <defs>
    <style>
      .cls-1 {
        fill: #2a3b8f;
        fill-rule: evenodd;
      }
    </style>
  </defs>
  <path id="Compound_Shape" data-name="Compound Shape" class="cls-1" d="M503.113,366.8c-27.568,161.643,37.829,285.065,32.344,437.392-4.28,118.534-62.219,233.283-137.683,320.823h25.668c71.162-87.73,124.426-200.368,126.786-315.8,3.1-152.4-64.221-274.774-39.177-436.83,18.559-120.1,86-213.9,163.949-284.286V82.048C594.5,151.52,523.848,245.227,503.113,366.8Zm0,0c-27.568,161.643,37.829,285.065,32.344,437.392-4.28,118.534-62.219,233.283-137.683,320.823h25.668c71.162-87.73,124.426-200.368,126.786-315.8,3.1-152.4-64.221-274.774-39.177-436.83,18.559-120.1,86-213.9,163.949-284.286V82.048C594.5,151.52,523.848,245.227,503.113,366.8Z" transform="translate(-397.781 -82.063)"/>
</svg>
